# xmcd
#
# Track frame offsets:
#	182
#	15812
#	27942
#	49177
#	62952
#	75197
#	90615
#	106257
#	117370
#	140925
#
# Disc length: 2134 seconds
#
# Revision: 0
# Processed by: cddbd v1.4b42PL1 Copyright (c) Steve Scherf et al.
# Submitted via: audiograbber 1.80
#
DISCID=7808540a
DTITLE=The Blues Collection - Volumen Uno
DYEAR=1900
DGENRE=
TTITLE0=B.B.King - Out of the streets again
TTITLE1=Little Milton - Life is like that
TTITLE2=Mike Bloomfield - Women loving each other
TTITLE3=Lena Horne - Nobody knows the trouble I´ve seen
TTITLE4=Sonny Terry and Brownie McGhee - Blues for lowlands
TTITLE5=Etta James - Jump into love
TTITLE6=B.B.King - The letter
TTITLE7=Mahalia Jackson - Josua fit the battle of Jerico
TTITLE8=Jimmy Smith - Sleep walk
TTITLE9=Etta James - Out of the streets again
EXTD=
EXTT0=
EXTT1=
EXTT2=
EXTT3=
EXTT4=
EXTT5=
EXTT6=
EXTT7=
EXTT8=
EXTT9=
PLAYORDER=
